<?xml version="1.0" standalone="no"?><!DOCTYPE svg PUBLIC "-//W3C//DTD SVG 1.1//EN" "http://www.w3.org/Graphics/SVG/1.1/DTD/svg11.dtd"><svg class="icon" width="64px" height="62.83px" viewBox="0 0 1043 1024" version="1.1" xmlns="http://www.w3.org/2000/svg"><path d="M531.320332 512.060244m-511.939756 0a511.939756 511.939756 0 1 0 1023.879512 0 511.939756 511.939756 0 1 0-1023.879512 0Z" fill="#F8E294" /><path d="M84.652895 592.325085a511.939756 511.939756 0 0 0 21.026097 144.988652A481.771877 481.771877 0 1 0 838.484186 141.086757 511.939756 511.939756 0 0 0 84.652895 592.325085z" fill="#F6D65D" /><path d="M446.484601 967.13812a602.07772 602.07772 0 0 1-170.951311-23.768632A489.268138 489.268138 0 0 0 1023.879511 525.590081a603.357569 603.357569 0 0 1-577.39491 441.548039z" fill="#F2C13A" /><path d="M959.155699 230.85905A511.939756 511.939756 0 1 0 1043.260088 512.060244a511.939756 511.939756 0 0 0-84.104389-281.201194z m-427.835367 762.973072A481.589042 481.589042 0 1 1 1013.092209 512.060244a482.137548 482.137548 0 0 1-481.771877 481.771878z" fill="#D98613" /><path d="M407.540613 423.750636a54.850688 54.850688 0 1 1-43.332044-43.332043 54.850688 54.850688 0 0 1 43.332044 43.332043zM749.626071 423.750636a54.850688 54.850688 0 1 1-43.332044-43.332043A54.850688 54.850688 0 0 1 749.626071 423.750636z" fill="#582A14" /><path d="M671.920929 715.00779a22.488782 22.488782 0 0 1-15.723864-6.399247 204.593067 204.593067 0 0 0-280.10418-3.291041 22.671618 22.671618 0 1 1-30.53355-33.276084 249.753467 249.753467 0 0 1 341.902623 4.022384 22.671618 22.671618 0 0 1-15.723864 38.943988z" fill="#C44F1C" /><path d="M240.611685 689.045131c0 67.100675-40.223838 121.402856-109.701376 121.402857s-109.701376-54.850688-109.701376-121.402857 109.701376-166.563256 109.701376-166.563256 109.701376 99.279745 109.701376 166.563256z" fill="#63C4DA" /><path d="M131.641651 832.93677C54.850688 832.93677 0 773.698027 0 689.045131c0-74.779771 104.399143-172.413996 116.283459-182.835627l15.175357-13.895507 15.175357 13.895507c11.884316 10.787302 116.283459 108.421527 116.283459 182.835627 0.182836 84.652895-53.753674 143.891638-131.275981 143.891639z m0-279.190003c-38.395482 38.578317-86.481252 98.914074-86.481251 135.298364 0 49.182784 26.694002 98.731239 86.481251 98.731239s86.481252-49.548455 86.481252-98.731239c-0.182836-36.567125-48.268606-96.902882-86.481252-135.298364z" fill="#3DAFCC" /><path d="M209.616909 301.920045l189.288664-78.599528 23.068016 55.553943-189.288664 78.599529-23.068016-55.553944Z" fill="#582A14" /><path d="MNaN NaNlNaN NaN NaN NaN NaN NaN NaN NaNZ" fill="#582A14" /></svg>