<?xml version="1.0" standalone="no"?><!DOCTYPE svg PUBLIC "-//W3C//DTD SVG 1.1//EN" "http://www.w3.org/Graphics/SVG/1.1/DTD/svg11.dtd"><svg class="icon" width="64px" height="64.00px" viewBox="0 0 1024 1024" version="1.1" xmlns="http://www.w3.org/2000/svg"><path d="M512.694668 511.725861m-511.725861 0a511.725861 511.725861 0 1 0 1023.451722 0 511.725861 511.725861 0 1 0-1023.451722 0Z" fill="#F8E294" /><path d="M66.762132 598.719258a511.725861 511.725861 0 0 0 23.027663 144.562555A481.570587 481.570587 0 1 0 814.064648 137.252186 511.725861 511.725861 0 0 0 66.762132 598.719258z" fill="#F6D65D" /><path d="M512.694668 511.725861m-511.725861 0a511.725861 511.725861 0 1 0 1023.451722 0 511.725861 511.725861 0 1 0-1023.451722 0Z" fill="#F8E294" /><path d="M66.213854 591.957166a511.725861 511.725861 0 0 0 21.017312 144.928074A481.570587 481.570587 0 1 0 819.730185 140.907371 511.725861 511.725861 0 0 0 66.213854 591.957166z" fill="#F6D65D" /><path d="M427.894382 966.6136a601.826165 601.826165 0 0 1-171.610922-23.758701 489.063716 489.063716 0 0 0 749.312868-417.604854 603.105479 603.105479 0 0 1-577.701946 441.363555z" fill="#F2C13A" /><path d="M512.14639 30.155274A481.570587 481.570587 0 1 1 31.124081 511.725861 482.118865 482.118865 0 0 1 512.14639 30.155274M512.14639 0a511.725861 511.725861 0 1 0 511.725861 511.725861A511.725861 511.725861 0 0 0 512.14639 0z" fill="#D98613" /><path d="M427.894382 966.6136a601.826165 601.826165 0 0 1-171.610922-23.758701 489.063716 489.063716 0 0 0 749.312868-417.604854 603.105479 603.105479 0 0 1-577.701946 441.363555z" fill="#F2C13A" /><path d="M935.782299 225.342138A511.725861 511.725861 0 1 0 154.852084 878.523648a511.725861 511.725861 0 0 0 780.930215-653.18151z m-417.056576 767.588792A481.936106 481.936106 0 0 1 89.789795 743.281813a481.570587 481.570587 0 1 1 429.118687 250.562913z" fill="#D98613" /><path d="M334.869931 409.380689m-55.193289 0a55.193289 55.193289 0 1 0 110.386578 0 55.193289 55.193289 0 1 0-110.386578 0Z" fill="#582A14" /><path d="M677.36074 409.380689m-55.19329 0a55.193289 55.193289 0 1 0 110.386579 0 55.193289 55.193289 0 1 0-110.386579 0Z" fill="#582A14" /><path d="M243.307554 739.626629a22.662145 22.662145 0 0 1-20.286275-32.531144 314.345886 314.345886 0 0 1 560.522577-5.482778 22.479386 22.479386 0 1 1-40.024273 20.834553 269.204355 269.204355 0 0 0-479.925754 4.568981 22.662145 22.662145 0 0 1-20.286275 12.610388z" fill="#C44F1C" /><path d="M191.113081 267.799925l189.209577-78.566689 23.058377 55.530732-189.209577 78.566689-23.058377-55.530732Z" fill="#582A14" /><path d="M592.436303 245.004106l22.961423-55.570892 189.346413 78.236336-22.961422 55.570892-189.346414-78.236336Z" fill="#582A14" /></svg>