<?xml version="1.0" standalone="no"?><!DOCTYPE svg PUBLIC "-//W3C//DTD SVG 1.1//EN" "http://www.w3.org/Graphics/SVG/1.1/DTD/svg11.dtd"><svg class="icon" width="64px" height="63.88px" viewBox="0 0 1026 1024" version="1.1" xmlns="http://www.w3.org/2000/svg"><path d="M511.583675 511.886823m-511.583675 0a511.583675 511.583675 0 1 0 1023.167351 0 511.583675 511.583675 0 1 0-1023.167351 0Z" fill="#F8E294" /><path d="M65.273543 592.153168a511.949354 511.949354 0 0 0 21.026491 144.808531A481.232392 481.232392 0 1 0 818.38761 141.272058 511.949354 511.949354 0 0 0 65.273543 592.153168z" fill="#F6D65D" /><path d="M513.412066 511.886823m-511.583675 0a511.583675 511.583675 0 1 0 1023.16735 0 511.583675 511.583675 0 1 0-1023.16735 0Z" fill="#F8E294" /><path d="M428.757584 966.607552a601.54049 601.54049 0 0 1-170.954517-23.769077A488.911633 488.911633 0 0 0 1005.614802 525.416913a601.906169 601.906169 0 0 1-576.857218 441.190639z" fill="#F2C13A" /><path d="M67.101933 592.153168a511.949354 511.949354 0 0 0 21.026491 144.808531A481.232392 481.232392 0 1 0 820.398839 141.272058a511.949354 511.949354 0 0 0-753.296906 450.88111z" fill="#F6D65D" /><path d="M426.746354 966.607552a601.54049 601.54049 0 0 1-170.771677-23.769077 488.911633 488.911633 0 0 0 747.628895-417.421562 601.906169 601.906169 0 0 1-576.857218 441.190639z" fill="#F2C13A" /><path d="M338.069412 419.5531m-55.217394 0a55.217395 55.217395 0 1 0 110.434789 0 55.217395 55.217395 0 1 0-110.434789 0Z" fill="#582A14" /><path d="M680.344123 419.5531m-55.217394 0a55.217395 55.217395 0 1 0 110.434789 0 55.217395 55.217395 0 1 0-110.434789 0Z" fill="#582A14" /><path d="M496.042356 710.815714a311.923428 311.923428 0 0 1-250.123827-124.147718 22.489204 22.489204 0 0 1 36.567811-27.243019 268.95625 268.95625 0 0 0 437.351019-12.250217 22.489204 22.489204 0 1 1 36.567811 25.23179 313.934657 313.934657 0 0 1-260.362814 138.409164z" fill="#C44F1C" /><path d="M159.984173 690.703418a22.489204 22.489204 0 0 1 0-45.161246 73.135622 73.135622 0 0 0 0-146.271244 22.489204 22.489204 0 0 1 0-45.161247 117.93119 117.93119 0 0 1 0 235.679542zM833.014734 690.703418a117.93119 117.93119 0 0 1 0-235.679541 22.489204 22.489204 0 0 1 0 45.161246 73.135622 73.135622 0 0 0 0 146.271244 22.489204 22.489204 0 0 1 0 45.161247z" fill="#C44F1C" /><path d="M940.889776 230.863195A511.949354 511.949354 0 1 0 1024.995741 512.252501a511.035158 511.035158 0 0 0-84.105965-281.389306z m-427.47771 762.438859A481.232392 481.232392 0 1 1 994.827297 512.252501a481.78091 481.78091 0 0 1-481.415231 481.049553z" fill="#D98613" /></svg>