<?xml version="1.0" standalone="no"?><!DOCTYPE svg PUBLIC "-//W3C//DTD SVG 1.1//EN" "http://www.w3.org/Graphics/SVG/1.1/DTD/svg11.dtd"><svg class="icon" width="64px" height="64.00px" viewBox="0 0 1024 1024" version="1.1" xmlns="http://www.w3.org/2000/svg"><path d="M512 512m-512 0a512 512 0 1 0 1024 0 512 512 0 1 0-1024 0Z" fill="#F8E294" /><path d="M65.330466 592.194982a511.816487 511.816487 0 0 0 20.92043 144.97491A481.72043 481.72043 0 1 0 819.2 140.937634 512 512 0 0 0 65.330466 592.194982z" fill="#F6D65D" /><path d="M427.217204 967.111111A602.104659 602.104659 0 0 1 256.917563 943.25448a489.244444 489.244444 0 0 0 747.630107-417.858064A602.471685 602.471685 0 0 1 427.217204 967.111111z" fill="#F2C13A" /><path d="M510.5319 823.420789a314.540502 314.540502 0 0 1-258.936201-135.982796 22.572043 22.572043 0 0 1 36.702509-25.691756A269.212903 269.212903 0 0 0 734.050179 657.708961a22.572043 22.572043 0 0 1 37.620072 24.957706 313.806452 313.806452 0 0 1-261.138351 140.754122z" fill="#C44F1C" /><path d="M309.585663 403.911111m-137.083871 0a137.083871 137.083871 0 1 0 274.167742 0 137.083871 137.083871 0 1 0-274.167742 0Z" fill="#FFFFFF" /><path d="M309.585663 563.567025a159.655914 159.655914 0 1 1 159.655914-159.655914 159.839427 159.839427 0 0 1-159.655914 159.655914z m0-274.167742A114.511828 114.511828 0 1 0 424.097491 403.727599a114.695341 114.695341 0 0 0-114.511828-114.328316z" fill="#582A14" /><path d="M704.321147 403.911111m-137.083871 0a137.083871 137.083871 0 1 0 274.167742 0 137.083871 137.083871 0 1 0-274.167742 0Z" fill="#FFFFFF" /><path d="M704.321147 563.567025a159.655914 159.655914 0 1 1 159.655914-159.655914 159.839427 159.839427 0 0 1-159.655914 159.655914z m0-274.167742A114.511828 114.511828 0 1 0 818.832975 403.727599a114.695341 114.695341 0 0 0-114.511828-114.328316z" fill="#582A14" /><path d="M306.098925 406.663799m-51.383513 0a51.383513 51.383513 0 1 0 102.767025 0 51.383513 51.383513 0 1 0-102.767025 0Z" fill="#582A14" /><path d="M705.23871 406.663799m-51.383513 0a51.383513 51.383513 0 1 0 102.767025 0 51.383513 51.383513 0 1 0-102.767025 0Z" fill="#582A14" /><path d="M445.017921 396.937634h118.916129v60.192115h-118.916129zM841.58853 396.937634h163.326165v60.192115h-163.326165zM25.875269 396.937634h146.443011v60.192115H25.875269z" fill="#582A14" /><path d="M939.767742 230.858781a511.816487 511.816487 0 1 0 84.048745 281.141219 511.449462 511.449462 0 0 0-84.048745-281.141219zM512 993.72043A481.72043 481.72043 0 1 1 993.72043 512 482.270968 482.270968 0 0 1 512 993.72043z" fill="#D98613" /></svg>