<?xml version="1.0" standalone="no"?><!DOCTYPE svg PUBLIC "-//W3C//DTD SVG 1.1//EN" "http://www.w3.org/Graphics/SVG/1.1/DTD/svg11.dtd"><svg class="icon" width="64px" height="63.32px" viewBox="0 0 1035 1024" version="1.1" xmlns="http://www.w3.org/2000/svg"><path d="M513.087388 513.716886m-508.828279 0a508.828279 508.828279 0 1 0 1017.656559 0 508.828279 508.828279 0 1 0-1017.656559 0Z" fill="#F8E294" /><path d="M69.181087 593.550916a509.191988 509.191988 0 0 0 20.913242 144.028591A478.640469 478.640469 0 1 0 818.238872 145.098258 509.191988 509.191988 0 0 0 69.181087 593.550916z" fill="#F6D65D" /><path d="M521.088976 514.444303m-508.828279 0a508.828279 508.828279 0 1 0 1017.656559 0 508.828279 508.828279 0 1 0-1017.656559 0Z" fill="#F8E294" /><path d="M436.890444 966.897756a598.300586 598.300586 0 0 1-170.033753-23.641057 486.278349 486.278349 0 0 0 743.784011-415.355179A598.664295 598.664295 0 0 1 436.890444 966.897756z" fill="#F2C13A" /><path d="M521.088976 35.62198A478.822323 478.822323 0 1 1 42.266653 514.080595 479.367886 479.367886 0 0 1 521.088976 35.62198m0-30.005956a509.191988 509.191988 0 1 0 509.191988 509.191988 509.191988 509.191988 0 0 0-509.191988-509.191988z" fill="#D98613" /><path d="M428.707001 965.988484a598.300586 598.300586 0 0 1-169.851898-23.641056 486.278349 486.278349 0 0 0 743.602156-415.173325 598.664295 598.664295 0 0 1-573.750258 438.814381z" fill="#F2C13A" /><path d="M77.000821 594.278333A507.737154 507.737154 0 0 0 107.55234 768.676589 478.640469 478.640469 0 1 0 818.238872 145.098258c-4.182648-3.455231-8.729006-6.546754-12.911654-9.820131A509.191988 509.191988 0 0 0 77.000821 594.278333z" fill="#F6D65D" /><path d="M938.262698 234.206856c-4.546357-6.728608-9.274568-13.457217-14.00278-20.003971A509.191988 509.191988 0 1 0 152.834057 872.879092c6.910463 6.910463 14.184634 13.639071 21.458805 20.185825a509.191988 509.191988 0 0 0 763.787982-658.858061zM513.451097 992.539209A478.822323 478.822323 0 0 1 107.55234 768.676589c-6.183046-9.820131-12.184237-20.003971-18.185428-30.369665A478.27676 478.27676 0 0 1 804.417947 135.096272c4.364503 3.273377 8.729006 6.3649 12.911654 9.820132A478.640469 478.640469 0 0 1 513.451097 992.539209z" fill="#D98613" /><path d="M513.451097 773.768509a246.77626 246.77626 0 0 1-151.302763-51.646616 22.368077 22.368077 0 1 1 27.459997-36.370856A203.313087 203.313087 0 0 0 666.208693 659.56402a22.368077 22.368077 0 0 1 33.824896 29.642248 247.503677 247.503677 0 0 1-159.668059 83.107406 250.5952 250.5952 0 0 1-26.914433 1.454835z" fill="#C44F1C" /><path d="M350.327806 494.258478m-54.919993 0a54.919993 54.919993 0 1 0 109.839986 0 54.919993 54.919993 0 1 0-109.839986 0Z" fill="#582A14" /><path d="M739.677823 536.994234a22.368077 22.368077 0 0 1-21.458805-16.185031 36.370856 36.370856 0 0 0-70.559462-1.636688 22.368077 22.368077 0 1 1-42.553902-14.548343 82.016281 82.016281 0 0 1 156.212828 3.81894 22.368077 22.368077 0 0 1-15.275759 27.823705 22.186222 22.186222 0 0 1-6.3649 0.727417z" fill="#582A14" /><path d="M204.088335 323.227142l181.383139-75.799828 23.069513 55.203564-181.38314 75.799828-23.069512-55.203564Z" fill="#582A14" /><path d="M617.42684 350.442764l7.830095-59.315474 194.893702 25.727455-7.830095 59.315475-194.893702-25.727456Z" fill="#582A14" /></svg>