<?xml version="1.0" standalone="no"?><!DOCTYPE svg PUBLIC "-//W3C//DTD SVG 1.1//EN" "http://www.w3.org/Graphics/SVG/1.1/DTD/svg11.dtd"><svg class="icon" width="64px" height="64.00px" viewBox="0 0 1024 1024" version="1.1" xmlns="http://www.w3.org/2000/svg"><path d="M512.017287 512.060244m-511.939756 0a511.939756 511.939756 0 1 0 1023.879512 0 511.939756 511.939756 0 1 0-1023.879512 0Z" fill="#F8E294" /><path d="M65.34985 592.325085a513.219605 513.219605 0 0 0 12.798494 113.540924A475.37263 475.37263 0 1 0 789.744605 126.642743 511.939756 511.939756 0 0 0 65.34985 592.325085z" fill="#F6D65D" /><path d="M334.849565 394.131265m-55.21636 0a55.216359 55.216359 0 1 0 110.432719 0 55.216359 55.216359 0 1 0-110.432719 0Z" fill="#582A14" /><path d="M677.300694 394.131265m-55.216359 0a55.216359 55.216359 0 1 0 110.432718 0 55.216359 55.216359 0 1 0-110.432718 0Z" fill="#582A14" /><path d="M769.44985 726.526435a27.425344 27.425344 0 0 1-24.499974-15.175357 264.380317 264.380317 0 0 0-468.790548-8.410439A27.425344 27.425344 0 1 1 227.890723 676.612309a319.231005 319.231005 0 0 1 566.790443 10.238795 27.425344 27.425344 0 0 1-24.499974 39.675331z" fill="#C44F1C" /><path d="M325.493548 235.201489l40.985787-44.028845 88.191517 82.09615-40.985787 44.028845-88.191517-82.09615Z" fill="#582A14" /><path d="M553.62513 272.448272l89.103019-81.105941 40.491433 44.483905-89.103019 81.105941-40.491433-44.483905Z" fill="#582A14" /><path d="M427.181556 967.13812a602.07772 602.07772 0 0 1-171.134147-23.768632 489.268138 489.268138 0 0 0 748.529057-417.779407 603.357569 603.357569 0 0 1-577.39491 441.548039z" fill="#F2C13A" /><path d="M939.852654 230.85905A511.939756 511.939756 0 1 0 1023.957043 512.060244a511.939756 511.939756 0 0 0-84.104389-281.201194zM512.017287 987.432875a475.37263 475.37263 0 1 1 475.37263-475.372631 475.37263 475.37263 0 0 1-475.37263 475.372631z" fill="#D98613" /></svg>