<?xml version="1.0" standalone="no"?><!DOCTYPE svg PUBLIC "-//W3C//DTD SVG 1.1//EN" "http://www.w3.org/Graphics/SVG/1.1/DTD/svg11.dtd"><svg class="icon" width="64px" height="63.20px" viewBox="0 0 1037 1024" version="1.1" xmlns="http://www.w3.org/2000/svg"><path d="M512 512m-512 0a512 512 0 1 0 1024 0 512 512 0 1 0-1024 0Z" fill="#F8E294" /><path d="M65.330466 592.194982a511.816487 511.816487 0 0 0 20.92043 144.97491A481.72043 481.72043 0 1 0 819.2 140.937634 512 512 0 0 0 65.330466 592.194982z" fill="#F6D65D" /><path d="M427.217204 967.111111A602.104659 602.104659 0 0 1 256.917563 943.25448a489.244444 489.244444 0 0 0 747.630107-417.858064A602.471685 602.471685 0 0 1 427.217204 967.111111z" fill="#F2C13A" /><path d="M939.767742 230.858781a511.816487 511.816487 0 1 0 84.048745 281.141219 511.449462 511.449462 0 0 0-84.048745-281.141219zM512 993.72043A481.72043 481.72043 0 1 1 993.72043 512 482.270968 482.270968 0 0 1 512 993.72043z" fill="#D98613" /><path d="M401.708961 405.379211m-55.237276 0a55.237276 55.237276 0 1 0 110.474552 0 55.237276 55.237276 0 1 0-110.474552 0Z" fill="#582A14" /><path d="M795.710394 444.283871a22.572043 22.572043 0 0 1-19.635842-11.377778 44.226523 44.226523 0 0 0-75.790681-1.835125 22.572043 22.572043 0 1 1-38.170609-24.223656 89.370609 89.370609 0 0 1 153.232975 3.853763 22.572043 22.572043 0 0 1-19.635843 33.766309z" fill="#582A14" /><path d="M788.002867 654.222222a55.053763 55.053763 0 0 1 35.784947-86.617921h7.156989a64.963441 64.963441 0 0 1 65.513978 61.109677 64.963441 64.963441 0 0 1 65.513979-61.109677h7.156989a55.053763 55.053763 0 0 1 35.784946 86.617921l-108.272401 114.328316z" fill="#E83B3D" /><path d="M896.275269 801.399283l-126.807169-134.14767a79.644444 79.644444 0 0 1-7.340501-78.176344 73.405018 73.405018 0 0 1 59.091039-43.859498 90.288172 90.288172 0 0 1 75.240143 27.893906 90.104659 90.104659 0 0 1 65.513979-28.444444 84.232258 84.232258 0 0 1 9.726165 0 73.405018 73.405018 0 0 1 59.091039 43.859498 79.644444 79.644444 0 0 1-7.340502 78.176344l-2.018638 2.569176z m-90.655197-161.491039l90.655197 95.793548 90.655197-95.793548a34.500358 34.500358 0 0 0 2.20215-32.481721 28.994982 28.994982 0 0 0-22.939068-18.351254h-4.587813a42.57491 42.57491 0 0 0-42.941936 38.537634h-44.960573a42.57491 42.57491 0 0 0-42.941936-38.537634H825.806452a28.994982 28.994982 0 0 0-22.939068 18.351254 34.500358 34.500358 0 0 0 2.752688 32.481721z" fill="#D32A29" /><path d="M593.47957 800.848746a22.572043 22.572043 0 1 1 0-45.144087 33.949821 33.949821 0 0 0 0-67.716129V642.293907a33.949821 33.949821 0 0 0 0-67.716129 22.572043 22.572043 0 1 1 0-45.144086 79.093907 79.093907 0 0 1 55.053763 135.432258 79.093907 79.093907 0 0 1-55.053763 135.432258z" fill="#C44F1C" /></svg>