<?xml version="1.0" standalone="no"?><!DOCTYPE svg PUBLIC "-//W3C//DTD SVG 1.1//EN" "http://www.w3.org/Graphics/SVG/1.1/DTD/svg11.dtd"><svg class="icon" width="64px" height="64.00px" viewBox="0 0 1024 1024" version="1.1" xmlns="http://www.w3.org/2000/svg"><path d="M512 512m-512 0a512 512 0 1 0 1024 0 512 512 0 1 0-1024 0Z" fill="#F8E294" /><path d="M65.330466 592.194982a511.816487 511.816487 0 0 0 20.92043 144.97491A481.72043 481.72043 0 1 0 819.2 140.937634 512 512 0 0 0 65.330466 592.194982z" fill="#F6D65D" /><path d="M427.217204 967.111111A602.104659 602.104659 0 0 1 256.917563 943.25448a489.244444 489.244444 0 0 0 747.630107-417.858064A602.471685 602.471685 0 0 1 427.217204 967.111111z" fill="#F2C13A" /><path d="M341.883871 428.134767m-55.237276 0a55.237276 55.237276 0 1 0 110.474552 0 55.237276 55.237276 0 1 0-110.474552 0Z" fill="#582A14" /><path d="M684.501792 428.134767m-55.237276 0a55.237276 55.237276 0 1 0 110.474552 0 55.237276 55.237276 0 1 0-110.474552 0Z" fill="#582A14" /><path d="M799.197133 532.18638a294.904659 294.904659 0 0 1-585.588531-2.752688z" fill="#E86563" /><path d="M506.678136 812.043011a317.29319 317.29319 0 0 1-315.458064-280.774194l-2.936201-25.324731 636.605018 2.936201-3.119713 25.324731a317.843728 317.843728 0 0 1-315.09104 277.837993zM240.217921 550.537634a272.332616 272.332616 0 0 0 532.18638 2.569176z" fill="#C44F1C" /><path d="M323.757025 264.691118l41.012492-44.057533 88.115065 82.024984-41.012492 44.057533-88.115065-82.024984Z" fill="#582A14" /><path d="M567.161524 302.045711l89.025777-81.035632 40.517816 44.512889-89.025777 81.035632-40.517816-44.512889Z" fill="#582A14" /><path d="M939.767742 230.858781a511.816487 511.816487 0 1 0 84.048745 281.141219 511.449462 511.449462 0 0 0-84.048745-281.141219zM512 993.72043A481.72043 481.72043 0 1 1 993.72043 512 482.270968 482.270968 0 0 1 512 993.72043z" fill="#D98613" /></svg>