<?xml version="1.0" standalone="no"?><!DOCTYPE svg PUBLIC "-//W3C//DTD SVG 1.1//EN" "http://www.w3.org/Graphics/SVG/1.1/DTD/svg11.dtd"><svg class="icon" width="64px" height="64.00px" viewBox="0 0 1024 1024" version="1.1" xmlns="http://www.w3.org/2000/svg"><path d="M511.256934 511.180066m-511.180065 0a511.180066 511.180066 0 1 0 1022.360131 0 511.180066 511.180066 0 1 0-1022.360131 0Z" fill="#F8E294" /><path d="M65.298914 591.383085a511.545455 511.545455 0 0 0 21.009903 144.694286A480.852728 480.852728 0 1 0 817.818818 140.857695 511.545455 511.545455 0 0 0 65.298914 591.383085z" fill="#F6D65D" /><path d="M426.486545 965.542047a601.06591 601.06591 0 0 1-170.636949-23.750325 488.52591 488.52591 0 0 0 747.03906-417.092241 601.4313 601.4313 0 0 1-576.402111 440.842566z" fill="#F2C13A" /><path d="M938.39739 230.37815A511.545455 511.545455 0 1 0 1023.167779 511.545455a510.631981 510.631981 0 0 0-84.770389-281.167305zM511.622324 992.215489A480.852728 480.852728 0 1 1 992.292357 511.545455 481.400812 481.400812 0 0 1 511.622324 992.215489z" fill="#D98613" /><path d="M345.918135 803.857144l-84.587695 78.558766c-47.683344 44.394838-112.722695 52.798799-144.328896 18.269481-31.606201-33.981234-18.269481-98.107111 29.231169-142.501948l93.174351-86.597338" fill="#E86563" /><path d="M171.444596 945.445618a94.27052 94.27052 0 0 1-70.885584-29.048474 97.193637 97.193637 0 0 1-22.288767-85.318474 154.011721 154.011721 0 0 1 47.866039-84.587695l88.058897-81.847273a22.471461 22.471461 0 0 1 30.692727 33.06776l-87.876201 81.847273a109.616883 109.616883 0 0 0-34.163929 59.375812 53.346883 53.346883 0 0 0 10.778993 46.76987 53.529578 53.529578 0 0 0 45.856397 14.250195 109.616883 109.616883 0 0 0 61.750844-29.596559l80.020325-74.174091a22.471461 22.471461 0 1 1 30.692727 33.06776l-80.020325 74.174091a154.011721 154.011721 0 0 1-87.876201 41.471721 124.415163 124.415163 0 0 1-12.605942 0.548084z" fill="#C44F1C" /><path d="M602.969727 359.543377a54.808442 54.808442 0 0 1 36.538961-86.414643h7.125097a64.856656 64.856656 0 0 1 65.404741 61.020065 64.856656 64.856656 0 0 1 65.40474-61.020065h7.125097a54.808442 54.808442 0 0 1 36.538961 86.414643l-108.155324 114.184254z" fill="#E83B3D" /><path d="M710.394272 506.612696L584.700246 372.514708a79.654935 79.654935 0 0 1-7.490487-78.010682 73.077922 73.077922 0 0 1 59.010422-43.846753 91.347403 91.347403 0 0 1 75.087565 27.769611 90.068539 90.068539 0 0 1 65.404741-28.317695 84.039611 84.039611 0 0 1 9.682824 0 73.077922 73.077922 0 0 1 59.010423 43.846753 79.654935 79.654935 0 0 1-7.490487 78.010682l-2.009643 2.557727z m-91.347402-161.136819l91.347402 95.549383 91.347403-95.549383a34.346623 34.346623 0 0 0 2.192338-32.519675 28.865779 28.865779 0 0 0-23.019546-18.269481h-4.56737a42.385195 42.385195 0 0 0-42.750584 38.548604h-45.673702a42.385195 42.385195 0 0 0-42.750584-38.548604h-4.56737a28.865779 28.865779 0 0 0-22.836851 18.269481 34.346623 34.346623 0 0 0 2.192338 32.33698z" fill="#D32A29" /><path d="M208.897031 359.543377a54.808442 54.808442 0 0 1 36.538961-86.414643h7.125098a64.856656 64.856656 0 0 1 65.40474 61.020065 64.856656 64.856656 0 0 1 65.404741-61.020065h7.125097a54.808442 54.808442 0 0 1 36.538961 86.414643l-108.155325 114.184254z" fill="#E83B3D" /><path d="M317.052356 506.612696l-126.6075-134.097988a79.654935 79.654935 0 0 1-7.673182-78.010682 73.077922 73.077922 0 0 1 59.010422-43.846753 91.347403 91.347403 0 0 1 75.087565 27.769611 89.885844 89.885844 0 0 1 65.404741-28.317695 83.856916 83.856916 0 0 1 9.682824 0 73.077922 73.077922 0 0 1 59.010423 43.846753 79.654935 79.654935 0 0 1-7.490487 78.010682l-2.009643 2.557727z m-91.347403-161.136819l91.347403 95.549383 91.347403-95.549383a34.346623 34.346623 0 0 0 2.375032-32.519675 28.865779 28.865779 0 0 0-23.019545-18.269481h-4.56737a42.385195 42.385195 0 0 0-42.750585 38.548604h-45.856396a42.385195 42.385195 0 0 0-42.750584-38.548604h-4.567371a28.865779 28.865779 0 0 0-22.83685 18.269481 34.346623 34.346623 0 0 0 2.192337 32.33698z" fill="#D32A29" /><path d="M509.064597 851.905878A339.264254 339.264254 0 0 1 170.165733 513.007014a22.471461 22.471461 0 0 1 45.125616 0 293.773247 293.773247 0 0 0 587.546495 0 22.471461 22.471461 0 1 1 45.125617 0 339.264254 339.264254 0 0 1-338.898864 338.898864z" fill="#C44F1C" /></svg>