<?xml version="1.0" standalone="no"?><!DOCTYPE svg PUBLIC "-//W3C//DTD SVG 1.1//EN" "http://www.w3.org/Graphics/SVG/1.1/DTD/svg11.dtd"><svg class="icon" width="64px" height="64.00px" viewBox="0 0 1024 1024" version="1.1" xmlns="http://www.w3.org/2000/svg"><path d="M512 512m-512 0a512 512 0 1 0 1024 0 512 512 0 1 0-1024 0Z" fill="#F8E294" /><path d="M65.330466 592.194982a511.816487 511.816487 0 0 0 20.92043 144.97491A481.72043 481.72043 0 1 0 819.2 140.937634 512 512 0 0 0 65.330466 592.194982z" fill="#F6D65D" /><path d="M427.217204 967.111111A602.104659 602.104659 0 0 1 256.917563 943.25448a489.244444 489.244444 0 0 0 747.630107-417.858064A602.471685 602.471685 0 0 1 427.217204 967.111111z" fill="#F2C13A" /><path d="M939.767742 230.858781a511.816487 511.816487 0 1 0 84.048745 281.141219 511.449462 511.449462 0 0 0-84.048745-281.141219zM512 993.72043A481.72043 481.72043 0 1 1 993.72043 512 482.270968 482.270968 0 0 1 512 993.72043z" fill="#D98613" /><path d="M344.820072 431.437993c77.992832 102.4-37.803584 218.196416-140.203585 140.203584-77.992832-102.583513 37.803584-218.379928 140.203585-140.203584zM814.979211 431.437993c77.992832 102.4-37.803584 218.196416-140.203584 140.203584-77.992832-102.583513 37.803584-218.379928 140.203584-140.203584z" fill="#F2921D" /><path d="M348.490323 398.589247m-55.237276 0a55.237276 55.237276 0 1 0 110.474552 0 55.237276 55.237276 0 1 0-110.474552 0Z" fill="#582A14" /><path d="M690.924731 398.589247m-55.237276 0a55.237276 55.237276 0 1 0 110.474552 0 55.237276 55.237276 0 1 0-110.474552 0Z" fill="#582A14" /><path d="M510.898925 697.34767a311.971326 311.971326 0 0 1-222.233692-91.756272 22.572043 22.572043 0 0 1 31.931183-31.931183 269.212903 269.212903 0 0 0 380.605018 0A22.572043 22.572043 0 1 1 734.050179 605.591398a311.971326 311.971326 0 0 1-223.151254 91.756272z" fill="#C44F1C" /></svg>