<?xml version="1.0" standalone="no"?><!DOCTYPE svg PUBLIC "-//W3C//DTD SVG 1.1//EN" "http://www.w3.org/Graphics/SVG/1.1/DTD/svg11.dtd"><svg class="icon" width="64px" height="64.00px" viewBox="0 0 1024 1024" version="1.1" xmlns="http://www.w3.org/2000/svg"><path d="M512.017287 512.060244m-511.939756 0a511.939756 511.939756 0 1 0 1023.879512 0 511.939756 511.939756 0 1 0-1023.879512 0Z" fill="#F8E294" /><path d="M65.34985 592.325085a511.939756 511.939756 0 0 0 21.026097 144.988652A481.771877 481.771877 0 1 0 819.18114 141.086757 511.939756 511.939756 0 0 0 65.34985 592.325085z" fill="#F6D65D" /><path d="M427.181556 967.13812a602.07772 602.07772 0 0 1-171.134147-23.768632 489.268138 489.268138 0 0 0 748.529057-417.779407 603.357569 603.357569 0 0 1-577.39491 441.548039z" fill="#F2C13A" /><path d="M939.852654 230.85905A511.939756 511.939756 0 1 0 1023.957043 512.060244a511.939756 511.939756 0 0 0-84.104389-281.201194zM512.017287 993.832122A481.589042 481.589042 0 1 1 993.789164 512.060244 482.137548 482.137548 0 0 1 512.017287 993.832122z" fill="#D98613" /><path d="M442.722584 704.403324c0 67.100675-40.223838 121.402856-109.701376 121.402856s-109.701376-54.850688-109.701376-121.402856 109.701376-166.563256 109.701376-166.563256 109.701376 99.462581 109.701376 166.563256z" fill="#63C4DA" /><path d="M336.495085 399.616334m-55.216359 0a55.216359 55.216359 0 1 0 110.432719 0 55.216359 55.216359 0 1 0-110.432719 0Z" fill="#582A14" /><path d="M678.946215 399.616334m-55.21636 0a55.216359 55.216359 0 1 0 110.432719 0 55.216359 55.216359 0 1 0-110.432719 0Z" fill="#582A14" /><path d="M729.957354 781.742794a22.488782 22.488782 0 0 1-18.283562-8.410439 268.037029 268.037029 0 0 0-210.078136-100.925266 271.693742 271.693742 0 0 0-54.850688 5.485069 22.671618 22.671618 0 0 1-9.141781-44.246222 316.122799 316.122799 0 0 1 63.809634-6.582082 313.014593 313.014593 0 0 1 245.365411 117.746144 22.671618 22.671618 0 0 1-18.283563 36.567125z" fill="#C44F1C" /><path d="M333.752551 848.477798c-77.522306 0-131.641651-59.238743-131.641652-143.891638 0-74.779771 104.399143-172.413996 116.283459-182.835627l15.175357-13.895508 15.175357 13.895508c11.884316 10.787302 116.283459 108.421527 116.283459 182.835627 0.365671 84.652895-53.753674 143.891638-131.27598 143.891638z m0-279.190002c-38.395482 38.395482-86.481252 98.914074-86.481252 135.298364 0 49.182784 26.694002 98.731239 86.481252 98.731238S420.599474 753.586108 420.599474 704.403324c0-36.567125-48.451441-96.720047-86.846923-135.298364z" fill="#3DAFCC" /></svg>