<?xml version="1.0" standalone="no"?><!DOCTYPE svg PUBLIC "-//W3C//DTD SVG 1.1//EN" "http://www.w3.org/Graphics/SVG/1.1/DTD/svg11.dtd"><svg class="icon" width="64px" height="64.00px" viewBox="0 0 1024 1024" version="1.1" xmlns="http://www.w3.org/2000/svg"><path d="M511.256934 511.180066m-511.180065 0a511.180066 511.180066 0 1 0 1022.360131 0 511.180066 511.180066 0 1 0-1022.360131 0Z" fill="#F8E294" /><path d="M65.298914 591.383085a511.545455 511.545455 0 0 0 21.009903 144.694286A480.852728 480.852728 0 1 0 817.818818 140.857695 511.545455 511.545455 0 0 0 65.298914 591.383085z" fill="#F6D65D" /><path d="M426.486545 965.542047a601.06591 601.06591 0 0 1-170.636949-23.750325 488.52591 488.52591 0 0 0 747.03906-417.092241 601.4313 601.4313 0 0 1-576.402111 440.842566z" fill="#F2C13A" /><path d="M938.39739 230.37815A511.545455 511.545455 0 1 0 1023.167779 511.545455a510.631981 510.631981 0 0 0-84.770389-281.167305zM511.622324 992.215489A480.852728 480.852728 0 1 1 992.292357 511.545455 481.400812 481.400812 0 0 1 511.622324 992.215489z" fill="#D98613" /><path d="M764.837324 586.267631A264.176689 264.176689 0 0 1 240.320538 584.623378z" fill="#E86563" /><path d="M502.670278 840.396105a286.465455 286.465455 0 0 1-284.821201-254.128474l-2.923117-25.211883 575.305942 2.740422-3.105811 25.211883A287.013539 287.013539 0 0 1 502.670278 840.396105z m-235.676299-234.032046a241.705228 241.705228 0 0 0 470.987209 2.192338z" fill="#C44F1C" /><path d="M950.089857 241.705228c0 66.866299-40.192857 121.126656-109.616883 121.126656s-109.616883-54.808442-109.616883-121.126656 109.616883-166.252273 109.616883-166.252273 109.616883 99.385974 109.616883 166.252273z" fill="#63C4DA" /><path d="M841.934532 385.48604c-77.279903 0-131.357565-59.193117-131.357565-143.780812 0-74.722175 104.318734-172.098507 116.193896-182.694806l15.163669-13.884805 15.163669 13.884805c11.875162 10.778994 116.193896 108.155325 116.193896 182.694806 0 84.77039-54.077662 143.780812-131.357565 143.780812z m0-278.792274c-38.183214 38.365909-86.231948 98.655195-86.231948 135.011462 0 49.144903 26.673442 98.655195 86.231948 98.655195s86.231948-49.510292 86.231948-98.655195c0-36.356266-48.048734-96.462857-86.231948-135.011462z" fill="#3DAFCC" /><path d="M411.87096 452.717728a22.471461 22.471461 0 0 1-22.106071-18.269481 64.125877 64.125877 0 0 0-125.145942-2.009642 22.471461 22.471461 0 1 1-43.846753-10.413604 109.616883 109.616883 0 0 1 213.204838 3.288506 22.471461 22.471461 0 0 1-18.269481 26.673442zM758.625701 452.717728a22.471461 22.471461 0 0 1-22.106072-18.269481 64.125877 64.125877 0 0 0-125.145941-2.009642 22.471461 22.471461 0 0 1-43.846754-10.413604 109.616883 109.616883 0 0 1 213.204838 3.288506 22.654156 22.654156 0 0 1-18.26948 26.673442z" fill="#582A14" /></svg>