<?xml version="1.0" standalone="no"?><!DOCTYPE svg PUBLIC "-//W3C//DTD SVG 1.1//EN" "http://www.w3.org/Graphics/SVG/1.1/DTD/svg11.dtd"><svg class="icon" width="64px" height="64.00px" viewBox="0 0 1024 1024" version="1.1" xmlns="http://www.w3.org/2000/svg"><path d="M512 512m-512 0a512 512 0 1 0 1024 0 512 512 0 1 0-1024 0Z" fill="#F8E294" /><path d="M65.330466 592.194982a511.816487 511.816487 0 0 0 20.92043 144.97491A481.72043 481.72043 0 1 0 819.2 140.937634 512 512 0 0 0 65.330466 592.194982z" fill="#F6D65D" /><path d="M427.217204 967.111111A602.104659 602.104659 0 0 1 256.917563 943.25448a489.244444 489.244444 0 0 0 747.630107-417.858064A602.471685 602.471685 0 0 1 427.217204 967.111111z" fill="#F2C13A" /><path d="M939.767742 230.858781a511.816487 511.816487 0 1 0 84.048745 281.141219 511.449462 511.449462 0 0 0-84.048745-281.141219zM512 993.72043A481.72043 481.72043 0 1 1 993.72043 512 482.270968 482.270968 0 0 1 512 993.72043z" fill="#D98613" /><path d="M504.843011 728.544803m-110.474552 0a110.474552 110.474552 0 1 0 220.949104 0 110.474552 110.474552 0 1 0-220.949104 0Z" fill="#C44F1C" /><path d="M224.357314 447.530169l172.844269-172.844269 42.562253 42.562252-172.844269 172.844269-42.562253-42.562252Z" fill="#582A14" /><path d="M224.227551 317.377915l42.562253-42.562252 172.844269 172.844269-42.562253 42.562252-172.844269-172.844269Z" fill="#582A14" /><path d="M568.727128 447.625456l172.844269-172.84427 42.562253 42.562253-172.84427 172.844269-42.562252-42.562252Z" fill="#582A14" /><path d="M568.727128 317.343439l42.562252-42.562253 172.84427 172.84427-42.562253 42.562252-172.844269-172.844269Z" fill="#582A14" /></svg>