<?xml version="1.0" standalone="no"?><!DOCTYPE svg PUBLIC "-//W3C//DTD SVG 1.1//EN" "http://www.w3.org/Graphics/SVG/1.1/DTD/svg11.dtd"><svg class="icon" width="64px" height="64.00px" viewBox="0 0 1024 1024" version="1.1" xmlns="http://www.w3.org/2000/svg"><path d="M511.848515 512.229931m-511.770069 0a511.770069 511.770069 0 1 0 1023.540138 0 511.770069 511.770069 0 1 0-1023.540138 0Z" fill="#F8E294" /><path d="M65.32913 608.186819a513.049494 513.049494 0 0 0 12.794251 113.13774A481.61219 481.61219 0 1 0 864.969862 185.062637 511.770069 511.770069 0 0 0 65.32913 608.186819z" fill="#F6D65D" /><path d="M427.040903 967.156967a601.878156 601.878156 0 0 1-171.077423-23.760753 489.105966 489.105966 0 0 0 748.280951-417.640931 603.157581 603.157581 0 0 1-577.203528 441.401684z" fill="#F2C13A" /><path d="M965.313351 274.622399A511.770069 511.770069 0 1 0 1023.618584 512.229931a511.770069 511.770069 0 0 0-58.305233-237.607532zM511.848515 993.842121A481.24664 481.24664 0 1 1 993.460705 512.229931 482.34329 482.34329 0 0 1 511.848515 993.842121z" fill="#D98613" /><path d="M349.178743 396.53334m-55.198058 0a55.198057 55.198057 0 1 0 110.396115 0 55.198057 55.198057 0 1 0-110.396115 0Z" fill="#582A14" /><path d="M689.140289 396.53334m-55.198058 0a55.198057 55.198057 0 1 0 110.396115 0 55.198057 55.198057 0 1 0-110.396115 0Z" fill="#582A14" /><path d="M603.236027 688.60783l-2.010525 73.11001a80.603786 80.603786 0 0 1-86.635362 73.110009 80.603786 80.603786 0 0 1-82.614311-77.679385l2.9244-80.421011" fill="#E86563" /><path d="M520.073391 695.004956a313.641942 313.641942 0 0 1-260.45441-138.543469 22.664103 22.664103 0 0 1 36.555005-25.222953 269.044836 269.044836 0 0 0 446.153835 0 22.664103 22.664103 0 1 1 36.555005 25.222953A314.190267 314.190267 0 0 1 520.073391 695.004956z" fill="#C44F1C" /><path d="M517.880091 858.040278h-3.107176a111.858315 111.858315 0 0 1-73.11001-29.792329 93.398038 93.398038 0 0 1-30.523429-70.91671l1.279425-80.603786a22.481328 22.481328 0 0 1 22.481328-21.933003A22.481328 22.481328 0 0 1 457.016007 676.727453l-2.1933 81.152111a48.800932 48.800932 0 0 0 16.266977 36.555005 66.895659 66.895659 0 0 0 44.231556 18.277503 57.756908 57.756908 0 0 0 63.422934-51.177007l2.010525-73.11001a22.115778 22.115778 0 0 1 23.212428-21.933003 22.481328 22.481328 0 0 1 21.933003 23.212428l-2.010525 73.11001a102.719564 102.719564 0 0 1-106.009514 95.225788z" fill="#C44F1C" /></svg>