<?xml version="1.0" standalone="no"?><!DOCTYPE svg PUBLIC "-//W3C//DTD SVG 1.1//EN" "http://www.w3.org/Graphics/SVG/1.1/DTD/svg11.dtd"><svg class="icon" width="64px" height="64.00px" viewBox="0 0 1024 1024" version="1.1" xmlns="http://www.w3.org/2000/svg"><path d="M512 512m-512 0a512 512 0 1 0 1024 0 512 512 0 1 0-1024 0Z" fill="#F8E294" /><path d="M65.330466 592.194982a511.816487 511.816487 0 0 0 20.92043 144.97491A481.72043 481.72043 0 1 0 819.2 140.937634 512 512 0 0 0 65.330466 592.194982z" fill="#F6D65D" /><path d="M427.217204 967.111111A602.104659 602.104659 0 0 1 256.917563 943.25448a489.244444 489.244444 0 0 0 747.630107-417.858064A602.471685 602.471685 0 0 1 427.217204 967.111111z" fill="#F2C13A" /><path d="M939.767742 230.858781a511.816487 511.816487 0 1 0 84.048745 281.141219 511.449462 511.449462 0 0 0-84.048745-281.141219zM512 993.72043A481.72043 481.72043 0 1 1 993.72043 512 482.270968 482.270968 0 0 1 512 993.72043z" fill="#D98613" /><path d="M774.606452 579.165591a264.62509 264.62509 0 0 1-525.396416-2.385663z" fill="#E86563" /><path d="M512.183513 833.330466a287.01362 287.01362 0 0 1-285.362008-253.981362l-2.9362-25.324731 576.22939 2.752688-3.119713 25.324731a287.380645 287.380645 0 0 1-284.811469 251.228674zM275.268817 599.535484a242.053047 242.053047 0 0 0 471.810753 2.20215z" fill="#C44F1C" /><path d="M951.14552 521.35914c47.346237 47.346237 57.439427 114.328315 8.808602 162.95914s-115.429391 38.721147-162.95914-8.808603-40.739785-194.890323-40.739785-194.890322 147.544086-6.606452 194.890323 40.739785z" fill="#63C4DA" /><path d="M885.998566 739.005018a149.562724 149.562724 0 0 1-104.969175-47.529749C728.177778 638.623656 732.949104 495.483871 734.050179 479.701792V458.781362h21.287455c16.149104 0 158.921864-5.688889 211.773477 47.346237 60.008602 60.008602 63.495341 140.020072 8.808602 194.890322a126.073118 126.073118 0 0 1-89.921147 37.987097zM778.460215 502.824373c0 55.053763 8.808602 131.027957 34.500358 156.719713 34.867384 34.867384 88.820072 51.016487 131.027957 8.808602s26.058781-96.160573-8.808602-131.027957c-25.875269-25.875269-102.4-34.500358-156.719713-34.500358z" fill="#3DAFCC" /><path d="M219.113978 675.509677c-47.346237 47.346237-114.328315 57.439427-162.959139 8.808603S18.351254 568.888889 64.963441 521.35914s194.890323-40.739785 194.890322-40.739785 6.606452 147.544086-40.739785 194.890322z" fill="#63C4DA" /><path d="M130.110394 739.005018a126.073118 126.073118 0 0 1-89.921147-38.721147c-55.053763-55.053763-51.2-134.88172 8.808602-194.890323 52.851613-52.851613 195.624373-48.080287 211.773477-46.612186l20.553405 0.917563 0.917563 20.553405c0 16.149104 5.688889 158.921864-47.346237 211.956989a149.562724 149.562724 0 0 1-104.785663 46.795699z m107.538352-236.180645c-55.053763 0-131.027957 8.808602-156.719714 34.500358-34.867384 34.867384-51.016487 88.820072-8.808602 131.027957s96.160573 26.058781 131.027957-8.808602c25.691756-25.691756 34.316846-102.4 34.500359-156.719713z" fill="#3DAFCC" /><path d="M764.146237 449.055197a22.572043 22.572043 0 0 1-21.654481-16.332616 59.091039 59.091039 0 0 0-112.49319-2.752689 22.572043 22.572043 0 1 1-42.758423-14.681003 104.235125 104.235125 0 0 1 198.744086 4.771326 22.572043 22.572043 0 0 1-15.231541 28.077419 22.38853 22.38853 0 0 1-6.606451 0.917563zM425.565591 454.010036a22.572043 22.572043 0 0 1-21.837992-16.149104 59.091039 59.091039 0 0 0-112.49319-2.752688 22.572043 22.572043 0 1 1-42.758423-14.681004 104.235125 104.235125 0 0 1 198.744086 4.771326 22.572043 22.572043 0 0 1-15.415054 27.893907 22.38853 22.38853 0 0 1-6.239427 0.917563z" fill="#582A14" /></svg>