<?xml version="1.0" standalone="no"?><!DOCTYPE svg PUBLIC "-//W3C//DTD SVG 1.1//EN" "http://www.w3.org/Graphics/SVG/1.1/DTD/svg11.dtd"><svg class="icon" width="64px" height="64.00px" viewBox="0 0 1024 1024" version="1.1" xmlns="http://www.w3.org/2000/svg"><path d="M512.017287 512.060244m-511.939756 0a511.939756 511.939756 0 1 0 1023.879512 0 511.939756 511.939756 0 1 0-1023.879512 0Z" fill="#F8E294" /><path d="M65.34985 592.325085a511.939756 511.939756 0 0 0 21.026097 144.988652A481.771877 481.771877 0 1 0 819.18114 141.086757 511.939756 511.939756 0 0 0 65.34985 592.325085z" fill="#F6D65D" /><path d="M427.181556 967.13812a602.07772 602.07772 0 0 1-171.134147-23.768632 489.268138 489.268138 0 0 0 748.529057-417.779407 603.357569 603.357569 0 0 1-577.39491 441.548039z" fill="#F2C13A" /><path d="M502.875506 817.944248a22.671618 22.671618 0 0 1-19.563412-33.824591 249.753467 249.753467 0 0 1 326.910101-100.376759 22.671618 22.671618 0 1 1-19.929084 40.589509 204.593067 204.593067 0 0 0-267.854193 82.093197 22.488782 22.488782 0 0 1-19.563412 11.518644z" fill="#C44F1C" /><path d="M563.537344 243.517129l193.95928-38.932939 11.838205 58.976528-193.959281 38.932939-11.838204-58.976528Z" fill="#582A14" /><path d="M227.397687 263.777883l11.70436-59.003237 194.047118 38.49276-11.704361 59.003236-194.047117-38.492759Z" fill="#582A14" /><path d="M232.644449 473.664763a97.634225 86.664087 0 1 0 195.26845 0 97.634225 86.664087 0 1 0-195.26845 0Z" fill="#FFFFFF" /><path d="M568.879167 473.664763a97.634225 86.664087 0 1 0 195.26845 0 97.634225 86.664087 0 1 0-195.26845 0Z" fill="#FFFFFF" /><path d="M41.032712 358.295482L18.361094 422.287951v190.697559h965.554946l30.899221-78.98499L983.91604 329.224617H54.92822zM329.18166 527.601273a60.152921 60.152921 0 1 1 60.152921-60.152922A60.152921 60.152921 0 0 1 329.18166 527.601273z m346.290678 0a60.152921 60.152921 0 1 1 60.152921-60.152922A60.152921 60.152921 0 0 1 676.569351 527.601273z" fill="#212222" /><path d="M939.852654 230.85905A511.939756 511.939756 0 1 0 1023.957043 512.060244a511.939756 511.939756 0 0 0-84.104389-281.201194zM512.017287 993.832122A481.589042 481.589042 0 1 1 993.789164 512.060244 482.137548 482.137548 0 0 1 512.017287 993.832122z" fill="#D98613" /></svg>