<?xml version="1.0" standalone="no"?><!DOCTYPE svg PUBLIC "-//W3C//DTD SVG 1.1//EN" "http://www.w3.org/Graphics/SVG/1.1/DTD/svg11.dtd"><svg class="icon" width="64px" height="64.00px" viewBox="0 0 1024 1024" version="1.1" xmlns="http://www.w3.org/2000/svg"><path d="M0.076434 510.993724a511.541805 510.993724 0 1 0 1023.08361 0 511.541805 510.993724 0 1 0-1023.08361 0Z" fill="#F8E294" /><path d="M65.298014 591.013478a510.080257 510.080257 0 0 0 21.740527 147.433656 481.214683 481.214683 0 1 0 727.120137-599.96546 511.541805 511.541805 0 0 0-749.043357 452.531804z" fill="#F6D65D" /><path d="M426.848454 965.169769a602.888556 602.888556 0 0 1-171.001117-23.750155A489.070504 489.070504 0 0 0 1003.794533 524.33035a601.792395 601.792395 0 0 1-576.946079 440.839419z" fill="#F2C13A" /><path d="M511.618239 30.144428A480.849296 480.849296 0 1 1 30.220862 511.541805 481.762764 481.762764 0 0 1 511.618239 30.144428M511.618239 0a511.541805 511.541805 0 1 0 511.541805 511.541805A511.541805 511.541805 0 0 0 511.618239 0z" fill="#D98613" /><path d="M391.405915 690.398743a22.471301 22.471301 0 0 1-8.951982-43.29836 316.607838 316.607838 0 0 1 246.818921-0.913468 22.471301 22.471301 0 1 1-18.26935 41.471425 271.482543 271.482543 0 0 0-211.193688 0 22.471301 22.471301 0 0 1-8.403901 2.740403z" fill="#C44F1C" /><path d="M391.953995 996.775745l-109.250714-49.875326V421.839295h109.250714v574.93645z" fill="#63C4DA" /><path d="M414.60799 996.775745h-45.125295V444.49329h-64.125419v504.416758h-45.125295V399.367995h154.376009v597.40775z" fill="#3DAFCC" /><path d="M628.176693 996.775745V421.839295h109.250714V955.487014l-109.250714 41.288731z" fill="#63C4DA" /><path d="M650.830687 986.362216h-45.125295V399.367995h154.376009v550.45552h-45.125295V444.49329h-64.125419v541.868926z" fill="#3DAFCC" /><path d="M232.097181 390.050626l210.645608 0 0 60.106162-210.645608 0 0-60.106162Z" fill="#582A14" /><path d="M607.532327 390.050626h150.539446A30.144428 30.144428 0 0 1 788.216201 420.195054a30.144428 30.144428 0 0 1-30.144428 30.144428h-150.539446A29.961734 29.961734 0 0 1 577.570593 420.195054a30.144428 30.144428 0 0 1 30.144428-30.144428z" fill="#582A14" /><path d="M936.928711 228.184184A511.541805 511.541805 0 1 0 1023.160044 511.541805a511.541805 511.541805 0 0 0-86.231333-283.357621zM511.618239 992.939182A480.483909 480.483909 0 1 1 993.015616 511.541805 481.945457 481.945457 0 0 1 511.618239 992.939182z" fill="#D98613" /></svg>