<?xml version="1.0" standalone="no"?><!DOCTYPE svg PUBLIC "-//W3C//DTD SVG 1.1//EN" "http://www.w3.org/Graphics/SVG/1.1/DTD/svg11.dtd"><svg class="icon" width="64px" height="64.00px" viewBox="0 0 1024 1024" version="1.1" xmlns="http://www.w3.org/2000/svg"><path d="M512.017287 512.060244m-511.939756 0a511.939756 511.939756 0 1 0 1023.879512 0 511.939756 511.939756 0 1 0-1023.879512 0Z" fill="#F8E294" /><path d="M65.34985 592.325085a511.939756 511.939756 0 0 0 21.026097 144.988652A481.771877 481.771877 0 1 0 819.18114 141.086757 511.939756 511.939756 0 0 0 65.34985 592.325085z" fill="#F6D65D" /><path d="M427.181556 967.13812a602.07772 602.07772 0 0 1-171.134147-23.768632 489.268138 489.268138 0 0 0 748.529057-417.779407 603.357569 603.357569 0 0 1-577.39491 441.548039z" fill="#F2C13A" /><path d="M939.852654 230.85905A511.939756 511.939756 0 1 0 1023.957043 512.060244a511.939756 511.939756 0 0 0-84.104389-281.201194zM512.017287 993.832122A481.589042 481.589042 0 1 1 993.789164 512.060244 482.137548 482.137548 0 0 1 512.017287 993.832122z" fill="#D98613" /><path d="M677.300694 409.672293m-55.216359 0a55.216359 55.216359 0 1 0 110.432718 0 55.216359 55.216359 0 1 0-110.432718 0Z" fill="#582A14" /><path d="M513.845643 809.899481a315.757128 315.757128 0 0 1-271.32807-155.593119 22.488782 22.488782 0 0 1 38.943988-22.854453 270.413892 270.413892 0 0 0 232.384082 133.287172 267.122851 267.122851 0 0 0 216.294547-109.701376 22.671618 22.671618 0 0 1 36.567126 26.876837 315.939963 315.939963 0 0 1-252.861673 127.984939z" fill="#C44F1C" /><path d="M275.610821 449.713296a22.671618 22.671618 0 0 1-18.283562-35.104441 104.216307 104.216307 0 0 1 172.962503 0 22.671618 22.671618 0 1 1-36.567126 25.231317 59.055908 59.055908 0 0 0-97.999896 0 22.488782 22.488782 0 0 1-20.111919 9.873124z" fill="#582A14" /><path d="M206.864626 686.485433a22.671618 22.671618 0 0 1 0-45.1604 57.227551 57.227551 0 0 0 57.044715-57.044716 22.671618 22.671618 0 0 1 45.1604 0 102.387951 102.387951 0 0 1-102.205115 102.205116z" fill="#C44F1C" /></svg>