<?xml version="1.0" standalone="no"?><!DOCTYPE svg PUBLIC "-//W3C//DTD SVG 1.1//EN" "http://www.w3.org/Graphics/SVG/1.1/DTD/svg11.dtd"><svg class="icon" width="64px" height="64.00px" viewBox="0 0 1024 1024" version="1.1" xmlns="http://www.w3.org/2000/svg"><path d="M512.017287 512.060244m-511.939756 0a511.939756 511.939756 0 1 0 1023.879512 0 511.939756 511.939756 0 1 0-1023.879512 0Z" fill="#F8E294" /><path d="M65.34985 592.325085a511.939756 511.939756 0 0 0 21.026097 144.988652A481.771877 481.771877 0 1 0 819.18114 141.086757 511.939756 511.939756 0 0 0 65.34985 592.325085z" fill="#F6D65D" /><path d="M427.181556 967.13812a602.07772 602.07772 0 0 1-171.134147-23.768632 489.268138 489.268138 0 0 0 748.529057-417.779407 603.357569 603.357569 0 0 1-577.39491 441.548039z" fill="#F2C13A" /><path d="M939.852654 230.85905A511.939756 511.939756 0 1 0 1023.957043 512.060244a511.939756 511.939756 0 0 0-84.104389-281.201194zM512.017287 993.832122A481.589042 481.589042 0 1 1 993.789164 512.060244 482.137548 482.137548 0 0 1 512.017287 993.832122z" fill="#D98613" /><path d="M340.700305 388.280525m-55.21636 0a55.216359 55.216359 0 1 0 110.432719 0 55.216359 55.216359 0 1 0-110.432719 0Z" fill="#582A14" /><path d="M683.33427 388.280525m-55.21636 0a55.216359 55.216359 0 1 0 110.432719 0 55.216359 55.216359 0 1 0-110.432719 0Z" fill="#582A14" /><path d="M306.875714 710.802571a62.164113 62.164113 0 0 1-61.0671-73.134251A64.540976 64.540976 0 0 1 310.898097 586.65718h387.61153a64.540976 64.540976 0 0 1 64.723812 50.828304 62.164113 62.164113 0 0 1-61.0671 73.134251z" fill="#FFFFFF" /><path d="M702.166339 609.145962a39.492495 39.492495 0 0 1 39.30966 43.149208 41.503687 41.503687 0 0 1-42.23503 36.567126h-389.439885a41.503687 41.503687 0 0 1-42.23503-36.567126 39.492495 39.492495 0 0 1 39.30966-43.149208H702.166339m0-45.1604H306.875714a85.018567 85.018567 0 0 0-84.652896 84.652896 85.018567 85.018567 0 0 0 84.652896 84.652895H702.166339a85.018567 85.018567 0 0 0 84.104389-84.47006 85.018567 85.018567 0 0 0-84.652896-84.652895z" fill="#C44F1C" /></svg>