<?xml version="1.0" standalone="no"?><!DOCTYPE svg PUBLIC "-//W3C//DTD SVG 1.1//EN" "http://www.w3.org/Graphics/SVG/1.1/DTD/svg11.dtd"><svg class="icon" width="64px" height="64.00px" viewBox="0 0 1024 1024" version="1.1" xmlns="http://www.w3.org/2000/svg"><path d="M511.922828 512.076086m-8.755261 511.827129a511.902007 511.902007 0 1 0 17.510522-1023.654259 511.902007 511.902007 0 1 0-17.510522 1023.654259Z" fill="#F8E294" /><path d="M65.379415 592.281409a511.902007 511.902007 0 0 0 21.024546 144.977961A481.736353 481.736353 0 1 0 819.15512 141.076354 511.902007 511.902007 0 0 0 65.379415 592.281409z" fill="#F6D65D" /><path d="M427.18444 967.066807a602.033325 602.033325 0 0 1-171.121528-23.766879 489.232061 489.232061 0 0 0 748.473864-417.748602 603.31308 603.31308 0 0 1-577.352336 441.515481z" fill="#F2C13A" /><path d="M939.817736 230.842027A511.902007 511.902007 0 1 0 1023.915923 512.022487a511.902007 511.902007 0 0 0-84.098187-281.18046zM512.013916 993.75884A481.553531 481.553531 0 1 1 993.750269 512.022487 482.101998 482.101998 0 0 1 512.013916 993.75884z" fill="#D98613" /><path d="M402.320629 457.175843c78.065056 102.380401-37.844184 218.289642-140.224586 140.224586C182.934054 494.837205 299.026116 378.927965 402.320629 457.175843zM751.145282 457.175843c78.065056 102.380401-37.844184 218.289642-140.224585 140.224586-78.065056-102.563224 37.844184-218.472464 140.224585-140.224586z" fill="#F2921D" /><path d="M329.740237 394.102203m-55.212288 0a55.212288 55.212288 0 1 0 110.424576 0 55.212288 55.212288 0 1 0-110.424576 0Z" fill="#582A14" /><path d="M672.166115 394.102203m-55.212288 0a55.212288 55.212288 0 1 0 110.424576 0 55.212288 55.212288 0 1 0-110.424576 0Z" fill="#582A14" /><path d="M649.130525 652.247073a137.116609 137.116609 0 1 1-274.233218 0z" fill="#E86563" /><path d="M512.013916 812.033628a159.786555 159.786555 0 0 1-159.603733-159.786555v-22.487124h319.207466v22.669946A159.786555 159.786555 0 0 1 512.013916 812.033628z m-112.252797-137.116609a114.446663 114.446663 0 0 0 224.505594 0z" fill="#C44F1C" /></svg>