<?xml version="1.0" standalone="no"?><!DOCTYPE svg PUBLIC "-//W3C//DTD SVG 1.1//EN" "http://www.w3.org/Graphics/SVG/1.1/DTD/svg11.dtd"><svg class="icon" width="64px" height="64.00px" viewBox="0 0 1024 1024" version="1.1" xmlns="http://www.w3.org/2000/svg"><path d="M512.017287 512.060244m-511.939756 0a511.939756 511.939756 0 1 0 1023.879512 0 511.939756 511.939756 0 1 0-1023.879512 0Z" fill="#F8E294" /><path d="M65.34985 592.325085a511.939756 511.939756 0 0 0 21.026097 144.988652A481.771877 481.771877 0 1 0 819.18114 141.086757 511.939756 511.939756 0 0 0 65.34985 592.325085z" fill="#F6D65D" /><path d="M427.181556 967.13812a602.07772 602.07772 0 0 1-171.134147-23.768632 489.268138 489.268138 0 0 0 748.529057-417.779407 603.357569 603.357569 0 0 1-577.39491 441.548039z" fill="#F2C13A" /><path d="M939.852654 230.85905A511.939756 511.939756 0 1 0 1023.957043 512.060244a511.939756 511.939756 0 0 0-84.104389-281.201194zM512.017287 993.832122A481.589042 481.589042 0 1 1 993.789164 512.060244 482.137548 482.137548 0 0 1 512.017287 993.832122z" fill="#D98613" /><path d="M624.826869 400.530512l44.611893-44.611893a30.167878 30.167878 0 0 0 0-42.600701 30.167878 30.167878 0 0 0-42.600701 0l-65.272319 65.272319a31.996235 31.996235 0 0 0 0 43.88055l65.089483 65.089483a30.167878 30.167878 0 1 0 42.600701-42.600701zM377.815937 400.530512l-44.611893 44.611893a30.167878 30.167878 0 0 0 0 42.600701 30.167878 30.167878 0 0 0 42.600701 0l65.089483-65.089483a31.996235 31.996235 0 0 0 0-43.880551l-65.089483-65.089483a30.167878 30.167878 0 0 0-42.600701 42.600701z" fill="#582A14" /><path d="M364.103265 734.388367c-62.895456 0-130.361802-78.070813-137.858063-87.212594a22.671618 22.671618 0 0 1 34.555934-29.070865c23.768632 28.339522 73.134251 73.134251 104.764814 70.940223a109.701376 109.701376 0 0 0 56.313373-27.973851 138.955077 138.955077 0 0 1 83.19021-36.567125 155.227447 155.227447 0 0 1 86.664087 36.567125 116.466294 116.466294 0 0 0 58.324565 27.60818c30.716385 0 86.11558-44.429057 113.72376-73.134251a22.671618 22.671618 0 0 1 32.179071 31.813399c-8.593274 8.77611-86.481252 85.749909-146.268502 85.749909A151.570735 151.570735 0 0 1 566.867975 698.73542a119.391664 119.391664 0 0 0-60.884264-28.339523 100.559595 100.559595 0 0 0-56.130537 27.059673 148.279694 148.279694 0 0 1-80.996183 36.567126z" fill="#C44F1C" /></svg>