<?xml version="1.0" standalone="no"?><!DOCTYPE svg PUBLIC "-//W3C//DTD SVG 1.1//EN" "http://www.w3.org/Graphics/SVG/1.1/DTD/svg11.dtd"><svg class="icon" width="64px" height="64.00px" viewBox="0 0 1024 1024" version="1.1" xmlns="http://www.w3.org/2000/svg"><path d="M512.017287 512.060244m-511.939756 0a511.939756 511.939756 0 1 0 1023.879512 0 511.939756 511.939756 0 1 0-1023.879512 0Z" fill="#F8E294" /><path d="M65.34985 592.325085a511.939756 511.939756 0 0 0 21.026097 144.988652A481.771877 481.771877 0 1 0 819.18114 141.086757 511.939756 511.939756 0 0 0 65.34985 592.325085z" fill="#F6D65D" /><path d="M427.181556 967.13812a602.07772 602.07772 0 0 1-171.134147-23.768632 489.268138 489.268138 0 0 0 748.529057-417.779407 603.357569 603.357569 0 0 1-577.39491 441.548039z" fill="#F2C13A" /><path d="M939.852654 230.85905A511.939756 511.939756 0 1 0 1023.957043 512.060244a511.939756 511.939756 0 0 0-84.104389-281.201194zM512.017287 993.832122A481.589042 481.589042 0 1 1 993.789164 512.060244 482.137548 482.137548 0 0 1 512.017287 993.832122z" fill="#D98613" /><path d="M327.536139 555.392288a104.764814 104.764814 0 0 1-100.011088-75.145443 22.671618 22.671618 0 0 1 43.332044-12.615658 59.055908 59.055908 0 0 0 112.626746 2.742534 22.671618 22.671618 0 0 1 42.783537 14.626851 104.216307 104.216307 0 0 1-98.731239 70.391716zM681.140242 550.27289A104.764814 104.764814 0 0 1 581.129154 475.493119a22.671618 22.671618 0 0 1 43.332044-12.615658 59.055908 59.055908 0 0 0 112.626746 2.742534 22.671618 22.671618 0 0 1 42.783537 14.62685 104.216307 104.216307 0 0 1-98.731239 70.026045z" fill="#582A14" /><path d="M326.987633 679.720514l345.74217 0 0 60.152922-345.74217 0 0-60.152922Z" fill="#C44F1C" /><path d="M193.161227 319.598744l182.53064-76.279367 23.194004 55.50146-182.53064 76.279368-23.194004-55.501461Z" fill="#582A14" /><path d="M607.897596 305.362257l22.844822-55.646097 183.006311 75.130996-22.844822 55.646096-183.006311-75.130995Z" fill="#582A14" /></svg>