<?xml version="1.0" standalone="no"?><!DOCTYPE svg PUBLIC "-//W3C//DTD SVG 1.1//EN" "http://www.w3.org/Graphics/SVG/1.1/DTD/svg11.dtd"><svg class="icon" width="64px" height="64.00px" viewBox="0 0 1024 1024" version="1.1" xmlns="http://www.w3.org/2000/svg"><path d="M511.256934 511.180066m-511.180065 0a511.180066 511.180066 0 1 0 1022.360131 0 511.180066 511.180066 0 1 0-1022.360131 0Z" fill="#F8E294" /><path d="M65.298914 591.383085a511.545455 511.545455 0 0 0 21.009903 144.694286A480.852728 480.852728 0 1 0 817.818818 140.857695 511.545455 511.545455 0 0 0 65.298914 591.383085z" fill="#F6D65D" /><path d="M426.486545 965.542047a601.06591 601.06591 0 0 1-170.636949-23.750325 488.52591 488.52591 0 0 0 747.03906-417.092241 601.4313 601.4313 0 0 1-576.402111 440.842566z" fill="#F2C13A" /><path d="M938.39739 230.37815A511.545455 511.545455 0 1 0 1023.167779 511.545455a510.631981 510.631981 0 0 0-84.770389-281.167305zM511.622324 992.215489A480.852728 480.852728 0 1 1 992.292357 511.545455 481.400812 481.400812 0 0 1 511.622324 992.215489z" fill="#D98613" /><path d="M333.677583 382.745617m-55.173831 0a55.173831 55.173831 0 1 0 110.347663 0 55.173831 55.173831 0 1 0-110.347663 0Z" fill="#582A14" /><path d="M675.682259 382.745617m-55.173831 0a55.173831 55.173831 0 1 0 110.347663 0 55.173831 55.173831 0 1 0-110.347663 0Z" fill="#582A14" /><path d="M501.391415 824.318962a22.471461 22.471461 0 1 1 0-45.125617 269.109448 269.109448 0 0 0 268.744059-268.744059 22.471461 22.471461 0 1 1 45.125617 0 314.235065 314.235065 0 0 1-313.869676 313.869676z" fill="#C44F1C" /></svg>