<?xml version="1.0" standalone="no"?><!DOCTYPE svg PUBLIC "-//W3C//DTD SVG 1.1//EN" "http://www.w3.org/Graphics/SVG/1.1/DTD/svg11.dtd"><svg class="icon" width="64px" height="64.00px" viewBox="0 0 1024 1024" version="1.1" xmlns="http://www.w3.org/2000/svg"><path d="M481.897317 476.555151m-473.163299 0a473.163299 473.163299 0 1 0 946.326598 0 473.163299 473.163299 0 1 0-946.326598 0Z" fill="#F8E294" /><path d="M542.102683 550.836701m-473.163299 0a473.163299 473.163299 0 1 0 946.326598 0 473.163299 473.163299 0 1 0-946.326598 0Z" fill="#F6D65D" /><path d="M268.719444 399.051342m-51.047367 0a51.047367 51.047367 0 1 0 102.094733 0 51.047367 51.047367 0 1 0-102.094733 0Z" fill="#582A14" /><path d="M704.572375 399.051342m-51.047367 0a51.047367 51.047367 0 1 0 102.094734 0 51.047367 51.047367 0 1 0-102.094734 0Z" fill="#582A14" /><path d="M481.897317 939.20371A466.210003 466.210003 0 1 1 947.937728 473.163299 466.718781 466.718781 0 0 1 481.897317 939.20371z m226.914872-723.481948A183.668764 183.668764 0 1 0 892.311361 399.220934a183.838357 183.838357 0 0 0-183.499172-183.499172z m-459.256707 0A183.668764 183.668764 0 1 0 432.715469 399.220934a183.838357 183.838357 0 0 0-183.159987-183.499172z" fill="#383C46" /><path d="M481.897317 13.906592A459.256708 459.256708 0 1 1 22.640609 473.163299 459.765485 459.765485 0 0 1 481.897317 13.906592m226.914872 576.614773A190.62206 190.62206 0 1 0 517.511759 399.220934a190.791653 190.791653 0 0 0 191.30043 190.62206m-459.256707 0A190.62206 190.62206 0 1 0 59.611792 399.220934a190.791653 190.791653 0 0 0 189.94369 190.62206M481.897317 0a473.163299 473.163299 0 1 0 473.163299 473.163299A473.163299 473.163299 0 0 0 481.897317 0z m226.914872 576.614773a176.715469 176.715469 0 1 1 176.545877-177.393839A176.715469 176.715469 0 0 1 708.812189 576.614773zM249.555482 576.614773a176.715469 176.715469 0 1 1 176.715469-177.393839A176.715469 176.715469 0 0 1 249.555482 576.614773z" fill="#212222" /><path d="M481.897317 31.374627A445.350116 445.350116 0 1 1 36.547201 476.555151 445.858894 445.858894 0 0 1 481.897317 31.374627m0-27.813183a473.163299 473.163299 0 1 0 473.163299 473.163299A473.163299 473.163299 0 0 0 481.897317 3.561444z" fill="#212222" /></svg>